# xmcd CD database file
#
# Track frame offsets:
#	150
#	21995
#	39245
#	51638
#	66265
#	83303
#	112593
#	136958
#	154455
#	167513
#	185890
#	204955
#	214988
#	228468
#	243678
#	251680
#	267223
#	281960
#	286158
#	302183
#	323380
#	332155
#
# Disc length: 4617 seconds
#
# Revision: 0
# Processed by: cddbd v1.5.1PL0 Copyright (c) Steve Scherf et al.
# Submitted via: CDex 1.51
#
DISCID=44120716
DTITLE=teo macero - the best of
DYEAR=1990
DGENRE=Jazz
TTITLE0=neally
TTITLE1=adventure
TTITLE2=heart on my sleeve
TTITLE3=24+18+
TTITLE4=t.c's groove
TTITLE5=sounds of may, time plus seven
TTITLE6=seven
TTITLE7=equals
TTITLE8=time
TTITLE9=plus
TTITLE10=pressure
TTITLE11=teo
TTITLE12=i'll remember april
TTITLE13=how low the earth
TTITLE14=mitzi
TTITLE15=explorations
TTITLE16=thou swell
TTITLE17=un poco diablo
TTITLE18=am i - are you
TTITLE19=blues for amy
TTITLE20=bedroom
TTITLE21=out of loneliness
EXTD=YEAR: 1990
EXTT0=
EXTT1=
EXTT2=
EXTT3=
EXTT4=
EXTT5=
EXTT6=
EXTT7=
EXTT8=
EXTT9=
EXTT10=
EXTT11=
EXTT12=
EXTT13=
EXTT14=
EXTT15=
EXTT16=
EXTT17=
EXTT18=
EXTT19=
EXTT20=
EXTT21=
PLAYORDER=
